<svg width="14" height="13" viewBox="0 0 14 13" fill="none" xmlns="http://www.w3.org/2000/svg">
<path d="M6.74998 12.1642H12.75M0.75 12.1642H1.86636C2.19248 12.1642 2.35554 12.1642 2.50899 12.1274C2.64504 12.0947 2.7751 12.0408 2.8944 11.9677C3.02895 11.8853 3.14425 11.77 3.37486 11.5394L11.75 3.16421C12.3023 2.61193 12.3023 1.7165 11.75 1.16421C11.1977 0.611929 10.3023 0.611929 9.75002 1.16421L1.37484 9.53937C1.14424 9.76998 1.02894 9.88528 0.94648 10.0198C0.873375 10.1391 0.819503 10.2692 0.78684 10.4052C0.75 10.5587 0.75 10.7217 0.75 11.0479V12.1642Z" stroke="currentColor" stroke-width="1.5" stroke-linecap="round" stroke-linejoin="round"/>
</svg>
