<svg width="60" height="60" viewBox="0 0 60 60" fill="currentColor" xmlns="http://www.w3.org/2000/svg">
<g clip-path="url(#clip0_965_3164)">
<path d="M30.0586 60C24.5983 60 20.1563 55.5578 20.1563 50.0977V9.9023C20.1563 4.44216 24.5984 0 30.0586 0C35.5187 0 39.9608 4.44227 39.9608 9.9023V50.0976C39.961 55.5578 35.5188 60 30.0586 60ZM30.0586 4.68749C27.1832 4.68749 24.8437 7.02691 24.8437 9.9023V50.0976C24.8437 52.973 27.1832 55.3124 30.0586 55.3124C32.9339 55.3124 35.2734 52.973 35.2734 50.0976V9.9023C35.2735 7.02691 32.9341 4.68749 30.0586 4.68749ZM12.0826 52.4999C11.5454 52.4999 11.0057 52.3164 10.5646 51.9408C3.85067 46.2262 0 37.8962 0 29.0871C0 24.5025 1.00698 20.0979 2.99272 15.9956C3.55678 14.8305 4.95812 14.343 6.12344 14.9072C7.28855 15.4712 7.77585 16.8729 7.2119 18.0379C5.53679 21.4984 4.68749 25.2157 4.68749 29.0871C4.68749 36.5199 7.93701 43.5488 13.603 48.3716C14.5887 49.2105 14.7077 50.6896 13.8686 51.6755C13.405 52.2199 12.7459 52.4999 12.0826 52.4999ZM15.4688 18.1641L15.4686 12.5393C15.4763 10.8116 14.8104 9.19022 13.5928 7.97275C12.3823 6.76213 10.7725 6.09692 9.05581 6.09692C9.04614 6.09692 9.03659 6.09692 9.02693 6.09692L3.517 6.09377H3.51553C2.22175 6.09377 1.17263 7.14222 1.17173 8.43612C1.17095 9.73057 2.21962 10.7806 3.51407 10.7813L9.02974 10.7844H9.04446C9.51389 10.7837 9.95119 10.9603 10.278 11.2872C10.6049 11.6142 10.7835 12.0523 10.7808 12.5209V12.5343L10.781 18.1641C10.781 19.4584 11.8305 20.5079 13.1248 20.5079C14.4194 20.5078 15.4688 19.4583 15.4688 18.1641ZM57.0073 44.0044C58.993 39.902 60 35.4973 60 30.9129C60 22.1038 56.1493 13.7739 49.4354 8.05906C48.4497 7.2201 46.9703 7.33889 46.1315 8.32474C45.2924 9.31036 45.4112 10.7897 46.3971 11.6287C52.063 16.4513 55.3125 23.4803 55.3125 30.913C55.3125 34.7843 54.4631 38.5017 52.7881 41.9622C52.224 43.1272 52.7115 44.529 53.8766 45.0929C54.2056 45.2522 54.5534 45.3277 54.896 45.3277C55.7664 45.3275 56.6025 44.8405 57.0073 44.0044ZM58.8281 51.5639C58.8289 50.2694 57.7803 49.2195 56.4858 49.2187L50.9701 49.2156C50.9617 49.2155 50.9534 49.2157 50.9451 49.2157C50.4805 49.2157 50.0462 49.0373 49.7219 48.7128C49.3949 48.386 49.2164 47.9478 49.2191 47.4791C49.2191 47.4747 49.2191 47.4703 49.2191 47.4659L49.2188 41.8359C49.2188 40.5414 48.1694 39.4921 46.875 39.4921C45.5806 39.4921 44.5312 40.5415 44.5312 41.8359L44.5313 47.4607C44.5237 49.1883 45.1896 50.8098 46.4072 52.0272C47.6177 53.2378 49.2275 53.9032 50.9442 53.9032C50.9538 53.9032 50.9634 53.9031 50.9731 53.9031L56.483 53.9062H56.4845C57.7781 53.9062 58.8272 52.8579 58.8281 51.5639Z" fill="currentColor"/>
</g>
<defs>
<clipPath id="clip0_965_3164">
<rect width="60" height="60" fill="currentColor"/>
</clipPath>
</defs>
</svg>
